<svg width="26" height="26" viewBox="0 0 26 26" fill="none" xmlns="http://www.w3.org/2000/svg">
<path opacity="0.4" d="M19.4461 8.35256L19.2944 8.2659L17.7886 7.39923L14.6794 5.6009C13.7261 5.0484 12.2744 5.0484 11.3211 5.6009L8.21189 7.39923L6.70606 8.27673L6.51106 8.38506C4.57189 9.68506 4.44189 9.9234 4.44189 12.0142V17.0084C4.44189 19.0992 4.57189 19.3376 6.55439 20.6701L11.3211 23.4217C11.7977 23.7034 12.3936 23.8334 13.0002 23.8334C13.5961 23.8334 14.2027 23.7034 14.6794 23.4217L19.4894 20.6376C21.4286 19.3376 21.5586 19.0992 21.5586 17.0084V12.0142C21.5586 9.9234 21.4286 9.68506 19.4461 8.35256Z" fill="black"/>
<path d="M6.70605 8.27675L8.21189 7.39925L11.1802 5.68758L11.3211 5.60091C12.2744 5.04841 13.7261 5.04841 14.6794 5.60091L14.8202 5.68758L17.7886 7.39925L19.2944 8.26591V5.94758C19.2944 3.51008 17.9511 2.16675 15.5136 2.16675H10.4761C8.03855 2.16675 6.70605 3.51008 6.70605 5.94758V8.27675Z" fill="black"/>
<path d="M16.0767 14.4517L15.4051 15.2751C15.2967 15.3942 15.2209 15.6326 15.2317 15.7951L15.2967 16.8567C15.3401 17.5067 14.8742 17.8426 14.2676 17.6042L13.2817 17.2142C13.1301 17.1601 12.8701 17.1601 12.7184 17.2142L11.7326 17.6042C11.1259 17.8426 10.6601 17.5067 10.7034 16.8567L10.7684 15.7951C10.7792 15.6326 10.7034 15.3942 10.5951 15.2751L9.92338 14.4517C9.50088 13.9534 9.68505 13.4009 10.3134 13.2384L11.3426 12.9784C11.5051 12.9351 11.7001 12.7834 11.7867 12.6426L12.3609 11.7542C12.7184 11.2017 13.2817 11.2017 13.6392 11.7542L14.2134 12.6426C14.3001 12.7834 14.495 12.9351 14.6575 12.9784L15.6867 13.2384C16.315 13.4009 16.4992 13.9534 16.0767 14.4517Z" fill="black"/>
</svg>
