<svg width="26" height="26" viewBox="0 0 26 26" fill="none" xmlns="http://www.w3.org/2000/svg">
<path opacity="0.4" d="M20.9518 15.6974L19.8684 13.8991C19.6409 13.4983 19.4351 12.7399 19.4351 12.2958V9.55493C19.4351 6.02327 16.5643 3.1416 13.0218 3.1416C9.47927 3.1416 6.60843 6.02327 6.60843 9.55493V12.2958C6.60843 12.7399 6.4026 13.4983 6.1751 13.8883L5.08093 15.6974C4.6476 16.4233 4.5501 17.2249 4.82093 17.9616C5.08093 18.6874 5.69843 19.2508 6.5001 19.5216C8.60177 20.2366 10.8118 20.5833 13.0218 20.5833C15.2318 20.5833 17.4418 20.2366 19.5434 19.5324C20.3018 19.2833 20.8868 18.7091 21.1684 17.9616C21.4501 17.2141 21.3743 16.3908 20.9518 15.6974Z" fill="black"/>
<path d="M15.4375 3.59675C14.69 3.30425 13.8775 3.14175 13.0217 3.14175C12.1767 3.14175 11.3642 3.29341 10.6167 3.59675C11.0825 2.71925 12.0034 2.16675 13.0217 2.16675C14.0509 2.16675 14.9609 2.71925 15.4375 3.59675Z" fill="black"/>
<path d="M16.0657 21.6776C15.6107 22.9342 14.4082 23.8334 12.9998 23.8334C12.144 23.8334 11.299 23.4867 10.7032 22.8692C10.3565 22.5442 10.0965 22.1109 9.94482 21.6667C10.0857 21.6884 10.2265 21.6992 10.3782 21.7209C10.6273 21.7534 10.8873 21.7859 11.1473 21.8076C11.7648 21.8617 12.3932 21.8942 13.0215 21.8942C13.639 21.8942 14.2565 21.8617 14.8632 21.8076C15.0907 21.7859 15.3182 21.7751 15.5348 21.7426C15.7082 21.7209 15.8815 21.6992 16.0657 21.6776Z" fill="black"/>
<circle cx="16.5" cy="4.5" r="2.5" fill="black"/>
</svg>
