<svg width="26" height="26" viewBox="0 0 26 26" fill="red" xmlns="http://www.w3.org/2000/svg">
<path opacity="0.4" d="M22.2082 7.58341V16.2501H6.879C5.17817 16.2501 3.7915 17.6367 3.7915 19.3376V7.58341C3.7915 3.25008 4.87484 2.16675 9.20817 2.16675H16.7915C21.1248 2.16675 22.2082 3.25008 22.2082 7.58341Z" fill="black"/>
<path d="M22.2082 16.25V20.0417C22.2082 22.1325 20.5073 23.8333 18.4165 23.8333H7.58317C5.49234 23.8333 3.7915 22.1325 3.7915 20.0417V19.3375C3.7915 17.6367 5.17817 16.25 6.879 16.25H22.2082Z" fill="black"/>
<path d="M17.3332 8.39575H8.6665C8.22234 8.39575 7.854 8.02742 7.854 7.58325C7.854 7.13909 8.22234 6.77075 8.6665 6.77075H17.3332C17.7773 6.77075 18.1457 7.13909 18.1457 7.58325C18.1457 8.02742 17.7773 8.39575 17.3332 8.39575Z" fill="black"/>
<path d="M14.0832 12.1875H8.6665C8.22234 12.1875 7.854 11.8192 7.854 11.375C7.854 10.9308 8.22234 10.5625 8.6665 10.5625H14.0832C14.5273 10.5625 14.8957 10.9308 14.8957 11.375C14.8957 11.8192 14.5273 12.1875 14.0832 12.1875Z" fill="black"/>
</svg>
