<svg width="26" height="26" viewBox="0 0 26 26" fill="none" xmlns="http://www.w3.org/2000/svg">
<path opacity="0.4" d="M12.9998 5.74167V23.1075C12.8157 23.1075 12.6207 23.075 12.469 22.9883L12.4257 22.9667C10.3457 21.8292 6.7165 20.6375 4.36567 20.3233L4.0515 20.28C3.0115 20.15 2.1665 19.175 2.1665 18.135V5.04833C2.1665 3.75917 3.21734 2.78417 4.5065 2.8925C6.7815 3.07667 10.2265 4.225 12.1548 5.4275L12.4257 5.59C12.5882 5.6875 12.794 5.74167 12.9998 5.74167Z" fill="black"/>
<path d="M23.8333 5.05916V18.135C23.8333 19.175 22.9883 20.15 21.9483 20.28L21.5908 20.3233C19.2292 20.6375 15.5892 21.84 13.5092 22.9883C13.3683 23.075 13.195 23.1075 13 23.1075V5.74166C13.2058 5.74166 13.4117 5.68749 13.5742 5.58999L13.7583 5.47082C15.6867 4.25749 19.1425 3.09832 21.4175 2.90332H21.4825C22.7717 2.79499 23.8333 3.75916 23.8333 5.05916Z" fill="black"/>
<path d="M8.396 10.01H5.9585C5.51433 10.01 5.146 9.64168 5.146 9.19751C5.146 8.75334 5.51433 8.38501 5.9585 8.38501H8.396C8.84016 8.38501 9.2085 8.75334 9.2085 9.19751C9.2085 9.64168 8.84016 10.01 8.396 10.01Z" fill="black"/>
<path d="M9.2085 13.26H5.9585C5.51433 13.26 5.146 12.8917 5.146 12.4475C5.146 12.0033 5.51433 11.635 5.9585 11.635H9.2085C9.65266 11.635 10.021 12.0033 10.021 12.4475C10.021 12.8917 9.65266 13.26 9.2085 13.26Z" fill="black"/>
</svg>
