<svg width="26" height="26" viewBox="0 0 26 26" fill="none" xmlns="http://www.w3.org/2000/svg">
<path opacity="0.4" d="M20.0092 18.2326L20.4317 21.6559C20.54 22.5551 19.5758 23.1834 18.8067 22.7176L14.2675 20.0201C13.7692 20.0201 13.2817 19.9876 12.805 19.9226C13.6067 18.9801 14.0833 17.7884 14.0833 16.4992C14.0833 13.4226 11.4183 10.9309 8.125 10.9309C6.86833 10.9309 5.70917 11.2884 4.745 11.9167C4.7125 11.6459 4.70166 11.3751 4.70166 11.0934C4.70166 6.16424 8.98083 2.16675 14.2675 2.16675C19.5542 2.16675 23.8333 6.16424 23.8333 11.0934C23.8333 14.0184 22.3275 16.6076 20.0092 18.2326Z" fill="black"/>
<path d="M14.0832 16.4992C14.0832 17.7884 13.6065 18.9801 12.8048 19.9226C11.7323 21.2226 10.0315 22.0567 8.12484 22.0567L5.29734 23.7359C4.82067 24.0284 4.214 23.6275 4.279 23.075L4.54983 20.9409C3.09817 19.9334 2.1665 18.3192 2.1665 16.4992C2.1665 14.5925 3.18484 12.9134 4.74484 11.9167C5.70901 11.2884 6.86817 10.9309 8.12484 10.9309C11.4182 10.9309 14.0832 13.4225 14.0832 16.4992Z" fill="black"/>
</svg>
