<svg width="26" height="26" viewBox="0 0 26 26" fill="none" xmlns="http://www.w3.org/2000/svg">
<path opacity="0.4" d="M2.1665 14.0509V7.57258C2.1665 4.58258 4.59317 2.16675 7.58317 2.16675H18.4165C21.4065 2.16675 23.8332 4.58258 23.8332 7.57258V15.1342C23.8332 18.1134 21.4065 20.5292 18.4165 20.5292H16.7915C16.4557 20.5292 16.1307 20.6917 15.9248 20.9626L14.2998 23.1184C13.5848 24.0717 12.4148 24.0717 11.6998 23.1184L10.0748 20.9626C9.9015 20.7242 9.5115 20.5292 9.20817 20.5292H7.58317C4.59317 20.5292 2.1665 18.1134 2.1665 15.1342V14.0509Z" fill="black"/>
<path d="M12.9998 12.9999C12.3932 12.9999 11.9165 12.5124 11.9165 11.9166C11.9165 11.3208 12.404 10.8333 12.9998 10.8333C13.5957 10.8333 14.0832 11.3208 14.0832 11.9166C14.0832 12.5124 13.6065 12.9999 12.9998 12.9999Z" fill="black"/>
<path d="M17.3333 12.9999C16.7267 12.9999 16.25 12.5124 16.25 11.9166C16.25 11.3208 16.7375 10.8333 17.3333 10.8333C17.9292 10.8333 18.4167 11.3208 18.4167 11.9166C18.4167 12.5124 17.94 12.9999 17.3333 12.9999Z" fill="black"/>
<path d="M8.66683 12.9999C8.06016 12.9999 7.5835 12.5124 7.5835 11.9166C7.5835 11.3208 8.071 10.8333 8.66683 10.8333C9.26266 10.8333 9.75016 11.3208 9.75016 11.9166C9.75016 12.5124 9.2735 12.9999 8.66683 12.9999Z" fill="black"/>
</svg>
