<svg width="0" height="0" class="hidden">
  <symbol fill="none" xmlns="http://www.w3.org/2000/svg" viewBox="0 0 20 20" id="arrow">
    <path d="M12.4999 17.225C12.3416 17.225 12.1832 17.1667 12.0582 17.0417L6.6249 11.6084C5.74157 10.725 5.74157 9.27502 6.6249 8.39168L12.0582 2.95835C12.2999 2.71668 12.6999 2.71668 12.9416 2.95835C13.1832 3.20002 13.1832 3.60002 12.9416 3.84168L7.50824 9.27502C7.10824 9.67502 7.10824 10.325 7.50824 10.725L12.9416 16.1583C13.1832 16.4 13.1832 16.8 12.9416 17.0417C12.8166 17.1584 12.6582 17.225 12.4999 17.225Z" fill="white"></path>
  </symbol>
  <symbol fill="none" xmlns="http://www.w3.org/2000/svg" viewBox="0 0 26 26" id="awards">
    <path opacity="0.4" d="M19.4461 8.35256L19.2944 8.2659L17.7886 7.39923L14.6794 5.6009C13.7261 5.0484 12.2744 5.0484 11.3211 5.6009L8.21189 7.39923L6.70606 8.27673L6.51106 8.38506C4.57189 9.68506 4.44189 9.9234 4.44189 12.0142V17.0084C4.44189 19.0992 4.57189 19.3376 6.55439 20.6701L11.3211 23.4217C11.7977 23.7034 12.3936 23.8334 13.0002 23.8334C13.5961 23.8334 14.2027 23.7034 14.6794 23.4217L19.4894 20.6376C21.4286 19.3376 21.5586 19.0992 21.5586 17.0084V12.0142C21.5586 9.9234 21.4286 9.68506 19.4461 8.35256Z" fill="black"></path>
    <path d="M6.70605 8.27675L8.21189 7.39925L11.1802 5.68758L11.3211 5.60091C12.2744 5.04841 13.7261 5.04841 14.6794 5.60091L14.8202 5.68758L17.7886 7.39925L19.2944 8.26591V5.94758C19.2944 3.51008 17.9511 2.16675 15.5136 2.16675H10.4761C8.03855 2.16675 6.70605 3.51008 6.70605 5.94758V8.27675Z" fill="black"></path>
    <path d="M16.0767 14.4517L15.4051 15.2751C15.2967 15.3942 15.2209 15.6326 15.2317 15.7951L15.2967 16.8567C15.3401 17.5067 14.8742 17.8426 14.2676 17.6042L13.2817 17.2142C13.1301 17.1601 12.8701 17.1601 12.7184 17.2142L11.7326 17.6042C11.1259 17.8426 10.6601 17.5067 10.7034 16.8567L10.7684 15.7951C10.7792 15.6326 10.7034 15.3942 10.5951 15.2751L9.92338 14.4517C9.50088 13.9534 9.68505 13.4009 10.3134 13.2384L11.3426 12.9784C11.5051 12.9351 11.7001 12.7834 11.7867 12.6426L12.3609 11.7542C12.7184 11.2017 13.2817 11.2017 13.6392 11.7542L14.2134 12.6426C14.3001 12.7834 14.495 12.9351 14.6575 12.9784L15.6867 13.2384C16.315 13.4009 16.4992 13.9534 16.0767 14.4517Z" fill="black"></path>
  </symbol>
  <symbol fill="none" xmlns="http://www.w3.org/2000/svg" viewBox="0 0 26 26" id="bell">
    <path opacity="0.4" d="M20.9518 15.6974L19.8684 13.8991C19.6409 13.4983 19.4351 12.7399 19.4351 12.2958V9.55493C19.4351 6.02327 16.5643 3.1416 13.0218 3.1416C9.47927 3.1416 6.60843 6.02327 6.60843 9.55493V12.2958C6.60843 12.7399 6.4026 13.4983 6.1751 13.8883L5.08093 15.6974C4.6476 16.4233 4.5501 17.2249 4.82093 17.9616C5.08093 18.6874 5.69843 19.2508 6.5001 19.5216C8.60177 20.2366 10.8118 20.5833 13.0218 20.5833C15.2318 20.5833 17.4418 20.2366 19.5434 19.5324C20.3018 19.2833 20.8868 18.7091 21.1684 17.9616C21.4501 17.2141 21.3743 16.3908 20.9518 15.6974Z" fill="black"></path>
    <path d="M15.4375 3.59675C14.69 3.30425 13.8775 3.14175 13.0217 3.14175C12.1767 3.14175 11.3642 3.29341 10.6167 3.59675C11.0825 2.71925 12.0034 2.16675 13.0217 2.16675C14.0509 2.16675 14.9609 2.71925 15.4375 3.59675Z" fill="black"></path>
    <path d="M16.0657 21.6776C15.6107 22.9342 14.4082 23.8334 12.9998 23.8334C12.144 23.8334 11.299 23.4867 10.7032 22.8692C10.3565 22.5442 10.0965 22.1109 9.94482 21.6667C10.0857 21.6884 10.2265 21.6992 10.3782 21.7209C10.6273 21.7534 10.8873 21.7859 11.1473 21.8076C11.7648 21.8617 12.3932 21.8942 13.0215 21.8942C13.639 21.8942 14.2565 21.8617 14.8632 21.8076C15.0907 21.7859 15.3182 21.7751 15.5348 21.7426C15.7082 21.7209 15.8815 21.6992 16.0657 21.6776Z" fill="black"></path>
    <circle cx="16.5" cy="4.5" r="2.5" fill="black"></circle>
  </symbol>
  <symbol fill="red" xmlns="http://www.w3.org/2000/svg" viewBox="0 0 26 26" id="book">
    <path opacity="0.4" d="M22.2082 7.58341V16.2501H6.879C5.17817 16.2501 3.7915 17.6367 3.7915 19.3376V7.58341C3.7915 3.25008 4.87484 2.16675 9.20817 2.16675H16.7915C21.1248 2.16675 22.2082 3.25008 22.2082 7.58341Z" fill="white"></path>
    <path d="M22.2082 16.25V20.0417C22.2082 22.1325 20.5073 23.8333 18.4165 23.8333H7.58317C5.49234 23.8333 3.7915 22.1325 3.7915 20.0417V19.3375C3.7915 17.6367 5.17817 16.25 6.879 16.25H22.2082Z" fill="white"></path>
    <path d="M17.3332 8.39575H8.6665C8.22234 8.39575 7.854 8.02742 7.854 7.58325C7.854 7.13909 8.22234 6.77075 8.6665 6.77075H17.3332C17.7773 6.77075 18.1457 7.13909 18.1457 7.58325C18.1457 8.02742 17.7773 8.39575 17.3332 8.39575Z" fill="white"></path>
    <path d="M14.0832 12.1875H8.6665C8.22234 12.1875 7.854 11.8192 7.854 11.375C7.854 10.9308 8.22234 10.5625 8.6665 10.5625H14.0832C14.5273 10.5625 14.8957 10.9308 14.8957 11.375C14.8957 11.8192 14.5273 12.1875 14.0832 12.1875Z" fill="white"></path>
  </symbol>
  <symbol fill="none" xmlns="http://www.w3.org/2000/svg" viewBox="0 0 26 26" id="book-2">
    <path opacity="0.4" d="M12.9998 5.74167V23.1075C12.8157 23.1075 12.6207 23.075 12.469 22.9883L12.4257 22.9667C10.3457 21.8292 6.7165 20.6375 4.36567 20.3233L4.0515 20.28C3.0115 20.15 2.1665 19.175 2.1665 18.135V5.04833C2.1665 3.75917 3.21734 2.78417 4.5065 2.8925C6.7815 3.07667 10.2265 4.225 12.1548 5.4275L12.4257 5.59C12.5882 5.6875 12.794 5.74167 12.9998 5.74167Z" fill="white"></path>
    <path d="M23.8333 5.05916V18.135C23.8333 19.175 22.9883 20.15 21.9483 20.28L21.5908 20.3233C19.2292 20.6375 15.5892 21.84 13.5092 22.9883C13.3683 23.075 13.195 23.1075 13 23.1075V5.74166C13.2058 5.74166 13.4117 5.68749 13.5742 5.58999L13.7583 5.47082C15.6867 4.25749 19.1425 3.09832 21.4175 2.90332H21.4825C22.7717 2.79499 23.8333 3.75916 23.8333 5.05916Z" fill="white"></path>
    <path d="M8.396 10.01H5.9585C5.51433 10.01 5.146 9.64168 5.146 9.19751C5.146 8.75334 5.51433 8.38501 5.9585 8.38501H8.396C8.84016 8.38501 9.2085 8.75334 9.2085 9.19751C9.2085 9.64168 8.84016 10.01 8.396 10.01Z" fill="white"></path>
    <path d="M9.2085 13.26H5.9585C5.51433 13.26 5.146 12.8917 5.146 12.4475C5.146 12.0033 5.51433 11.635 5.9585 11.635H9.2085C9.65266 11.635 10.021 12.0033 10.021 12.4475C10.021 12.8917 9.65266 13.26 9.2085 13.26Z" fill="white"></path>
  </symbol>
  <symbol fill="none" xmlns="http://www.w3.org/2000/svg" viewBox="0 0 26 26" id="chat">
    <path opacity="0.4" d="M20.0092 18.2326L20.4317 21.6559C20.54 22.5551 19.5758 23.1834 18.8067 22.7176L14.2675 20.0201C13.7692 20.0201 13.2817 19.9876 12.805 19.9226C13.6067 18.9801 14.0833 17.7884 14.0833 16.4992C14.0833 13.4226 11.4183 10.9309 8.125 10.9309C6.86833 10.9309 5.70917 11.2884 4.745 11.9167C4.7125 11.6459 4.70166 11.3751 4.70166 11.0934C4.70166 6.16424 8.98083 2.16675 14.2675 2.16675C19.5542 2.16675 23.8333 6.16424 23.8333 11.0934C23.8333 14.0184 22.3275 16.6076 20.0092 18.2326Z" fill="white"></path>
    <path d="M14.0832 16.4992C14.0832 17.7884 13.6065 18.9801 12.8048 19.9226C11.7323 21.2226 10.0315 22.0567 8.12484 22.0567L5.29734 23.7359C4.82067 24.0284 4.214 23.6275 4.279 23.075L4.54983 20.9409C3.09817 19.9334 2.1665 18.3192 2.1665 16.4992C2.1665 14.5925 3.18484 12.9134 4.74484 11.9167C5.70901 11.2884 6.86817 10.9309 8.12484 10.9309C11.4182 10.9309 14.0832 13.4225 14.0832 16.4992Z" fill="white"></path>
  </symbol>
  <symbol fill="none" xmlns="http://www.w3.org/2000/svg" viewBox="0 0 11 167" id="line">
    <path d="M1 0V156C1 161.523 5.47715 166 11 166V166" stroke="white" stroke-width="0.5"></path>
  </symbol>
  <symbol fill="none" xmlns="http://www.w3.org/2000/svg" viewBox="0 0 26 26" id="dashboard">
    <path d="M7.84317 2.16675H5.78484C3.41234 2.16675 2.1665 3.41258 2.1665 5.77425V7.83258C2.1665 10.1942 3.41234 11.4401 5.774 11.4401H7.83234C10.194 11.4401 11.4398 10.1942 11.4398 7.83258V5.77425C11.4507 3.41258 10.2048 2.16675 7.84317 2.16675Z" fill="white"></path>
    <path opacity="0.4" d="M20.2259 2.16675H18.1676C15.8059 2.16675 14.5601 3.41258 14.5601 5.77425V7.83258C14.5601 10.1942 15.8059 11.4401 18.1676 11.4401H20.2259C22.5876 11.4401 23.8334 10.1942 23.8334 7.83258V5.77425C23.8334 3.41258 22.5876 2.16675 20.2259 2.16675Z" fill="white"></path>
    <path d="M20.2259 14.5491H18.1676C15.8059 14.5491 14.5601 15.7949 14.5601 18.1566V20.2149C14.5601 22.5766 15.8059 23.8224 18.1676 23.8224H20.2259C22.5876 23.8224 23.8334 22.5766 23.8334 20.2149V18.1566C23.8334 15.7949 22.5876 14.5491 20.2259 14.5491Z" fill="white"></path>
    <path opacity="0.4" d="M7.84317 14.5491H5.78484C3.41234 14.5491 2.1665 15.7949 2.1665 18.1566V20.2149C2.1665 22.5874 3.41234 23.8332 5.774 23.8332H7.83234C10.194 23.8332 11.4398 22.5874 11.4398 20.2257V18.1674C11.4507 15.7949 10.2048 14.5491 7.84317 14.5491Z" fill="white"></path>
  </symbol>
  <symbol fill="none" xmlns="http://www.w3.org/2000/svg" viewBox="0 0 11 16" id="curve">
    <path d="M1 0V5.5C1 11.0228 5.47715 15.5 11 15.5V15.5" stroke="white" stroke-width="0.5"></path>
  </symbol>
  <symbol fill="none" xmlns="http://www.w3.org/2000/svg" viewBox="0 0 26 26" id="messages">
    <path opacity="0.4" d="M2.1665 14.0509V7.57258C2.1665 4.58258 4.59317 2.16675 7.58317 2.16675H18.4165C21.4065 2.16675 23.8332 4.58258 23.8332 7.57258V15.1342C23.8332 18.1134 21.4065 20.5292 18.4165 20.5292H16.7915C16.4557 20.5292 16.1307 20.6917 15.9248 20.9626L14.2998 23.1184C13.5848 24.0717 12.4148 24.0717 11.6998 23.1184L10.0748 20.9626C9.9015 20.7242 9.5115 20.5292 9.20817 20.5292H7.58317C4.59317 20.5292 2.1665 18.1134 2.1665 15.1342V14.0509Z" fill="white"></path>
    <path d="M12.9998 12.9999C12.3932 12.9999 11.9165 12.5124 11.9165 11.9166C11.9165 11.3208 12.404 10.8333 12.9998 10.8333C13.5957 10.8333 14.0832 11.3208 14.0832 11.9166C14.0832 12.5124 13.6065 12.9999 12.9998 12.9999Z" fill="white"></path>
    <path d="M17.3333 12.9999C16.7267 12.9999 16.25 12.5124 16.25 11.9166C16.25 11.3208 16.7375 10.8333 17.3333 10.8333C17.9292 10.8333 18.4167 11.3208 18.4167 11.9166C18.4167 12.5124 17.94 12.9999 17.3333 12.9999Z" fill="white"></path>
    <path d="M8.66683 12.9999C8.06016 12.9999 7.5835 12.5124 7.5835 11.9166C7.5835 11.3208 8.071 10.8333 8.66683 10.8333C9.26266 10.8333 9.75016 11.3208 9.75016 11.9166C9.75016 12.5124 9.2735 12.9999 8.66683 12.9999Z" fill="white"></path>
  </symbol>
</svg>